<svg xmlns="http://www.w3.org/2000/svg" viewBox="0 0 320 320" role="img" aria-label="SK SharePoint Webparts logo">
  <defs>
    <linearGradient id="docGrad" x1="0" y1="0" x2="0" y2="1">
      <stop offset="0%" stop-color="#ffffff"/>
      <stop offset="100%" stop-color="#e6f0ff"/>
    </linearGradient>
    <linearGradient id="foldGrad" x1="0" y1="0" x2="1" y2="1">
      <stop offset="0%" stop-color="#96dbff"/>
      <stop offset="100%" stop-color="#39bde6"/>
    </linearGradient>
    <linearGradient id="ribbonA" x1="0" y1="0" x2="1" y2="0">
      <stop offset="0%" stop-color="#26b9f5"/>
      <stop offset="100%" stop-color="#5b6df6"/>
    </linearGradient>
    <linearGradient id="ribbonB" x1="0" y1="0" x2="1" y2="0">
      <stop offset="0%" stop-color="#55de9a"/>
      <stop offset="100%" stop-color="#f3cc52"/>
    </linearGradient>
    <linearGradient id="ribbonC" x1="0" y1="0" x2="1" y2="0">
      <stop offset="0%" stop-color="#8a78ff"/>
      <stop offset="100%" stop-color="#e06bd8"/>
    </linearGradient>
    <filter id="soft" x="-20%" y="-20%" width="140%" height="140%">
      <feDropShadow dx="0" dy="8" stdDeviation="8" flood-color="#1d4f8f" flood-opacity="0.22"/>
    </filter>
  </defs>

  <g filter="url(#soft)">
    <rect x="70" y="32" width="180" height="236" rx="22" fill="url(#docGrad)"/>
    <path d="M210 32l40 40h-24c-8.8 0-16-7.2-16-16V32z" fill="url(#foldGrad)"/>

    <rect x="94" y="74" width="126" height="10" rx="5" fill="#35b2e8"/>
    <rect x="94" y="94" width="108" height="8" rx="4" fill="#a3b9d5"/>
    <rect x="94" y="112" width="132" height="8" rx="4" fill="#a3b9d5"/>
    <rect x="94" y="130" width="122" height="8" rx="4" fill="#a3b9d5"/>
    <rect x="94" y="148" width="136" height="8" rx="4" fill="#a3b9d5"/>
    <rect x="94" y="166" width="98" height="8" rx="4" fill="#a3b9d5"/>

    <path d="M36 156c0-19 16-35 35-35h106v58H71c-19 0-35-16-35-35z" fill="url(#ribbonA)"/>
    <path d="M80 144l15 15 26-26" fill="none" stroke="#d7f6ff" stroke-width="8" stroke-linecap="round" stroke-linejoin="round"/>

    <path d="M132 114h124c19 0 35 16 35 35s-16 35-35 35H132v-70z" fill="url(#ribbonB)"/>
    <rect x="170" y="134" width="84" height="30" rx="15" fill="#f2f8ff" opacity="0.9"/>
    <circle cx="240" cy="149" r="10" fill="#2f98df"/>

    <path d="M94 198h150c16 0 29 13 29 29s-13 29-29 29H94v-58z" fill="url(#ribbonC)"/>
    <rect x="118" y="214" width="24" height="24" rx="4" fill="#d4e2ff"/>
    <path d="M178 238l14-20 14 20-8 4-6-7-6 7z" fill="#ffd36b"/>

    <circle cx="72" cy="252" r="22" fill="#4f82f1"/>
    <circle cx="72" cy="252" r="12" fill="#d6e9ff"/>
  </g>
</svg>
